Coordinates
version=1
nRows=29
nColumns=38
inDegrees=no

Units are S.I. units (second, meters, Newtons, ...)
If the header above contains a line with 'inDegrees', this indicates whether rotational values are in degrees (yes) or radians (no).

endheader
time	pelvis_tilt	pelvis_list	pelvis_rotation	pelvis_tx	pelvis_ty	pelvis_tz	hip_flexion_r	hip_adduction_r	hip_rotation_r	knee_angle_r	ankle_angle_r	subtalar_angle_r	mtp_angle_r	hip_flexion_l	hip_adduction_l	hip_rotation_l	knee_angle_l	ankle_angle_l	subtalar_angle_l	mtp_angle_l	lumbar_extension	lumbar_bending	lumbar_rotation	arm_flex_r	arm_add_r	arm_rot_r	elbow_flex_r	pro_sup_r	wrist_flex_r	wrist_dev_r	arm_flex_l	arm_add_l	arm_rot_l	elbow_flex_l	pro_sup_l	wrist_flex_l	wrist_dev_l
1.95833	0.174332	-0.148484	-0.124594	0.881702	1.02821	-0.312737	0.0635211	0.236134	0.0602911	-0.750276	0.38613	0.049271	8.54464e-05	0.247543	-0.223569	-0.102556	-1.46827	0.125668	0.0758117	8.74104e-05	-0.539389	0.0951179	0.131527	-0.0310505	-0.462668	0.0448683	1.81415	1.84222	-0.0106657	-0.019569	-0.333433	-0.232463	0.0923954	1.80584	1.99297	-0.0111735	-0.00558791
1.96667	0.163051	-0.139292	-0.133094	0.880775	1.03034	-0.312074	0.0476757	0.225893	0.0732489	-0.730444	0.386139	0.049271	8.54464e-05	0.279454	-0.218269	-0.109097	-1.44608	0.128759	0.0758117	8.74104e-05	-0.525771	0.0821019	0.14372	-0.0142543	-0.460346	0.0434682	1.84844	1.84187	-0.0106657	-0.019569	-0.35547	-0.23867	0.0922014	1.82613	1.97617	-0.0111735	-0.00558791
1.975	0.151185	-0.128715	-0.140354	0.880075	1.03286	-0.311521	0.0315861	0.213897	0.084931	-0.70756	0.383004	0.049271	8.54464e-05	0.309925	-0.211441	-0.116561	-1.41802	0.130186	0.0758117	8.74104e-05	-0.510757	0.0682382	0.154445	-0.00108263	-0.457089	0.0406003	1.88454	1.84072	-0.0106657	-0.019569	-0.37837	-0.245098	0.0913065	1.84885	1.95246	-0.0111735	-0.00558791
1.98333	0.139101	-0.116979	-0.145985	0.879598	1.03574	-0.311127	0.01508	0.200297	0.0946886	-0.681874	0.376262	0.049271	8.54464e-05	0.338461	-0.203009	-0.124587	-1.38418	0.129904	0.0758117	8.74104e-05	-0.494881	0.0538976	0.163534	0.00859451	-0.453054	0.0365821	1.92191	1.83843	-0.0106657	-0.019569	-0.401554	-0.251452	0.0897459	1.87255	1.92537	-0.0111735	-0.00558791
1.99167	0.127189	-0.104343	-0.149717	0.879336	1.03898	-0.310935	-0.00204346	0.185286	0.101928	-0.653728	0.365433	0.049271	8.54464e-05	0.36451	-0.192848	-0.132709	-1.34463	0.127997	0.0758117	8.74104e-05	-0.47874	0.0394152	0.17084	0.0150092	-0.448396	0.0317493	1.96009	1.83491	-0.0106657	-0.019569	-0.424584	-0.257443	0.0875097	1.89608	1.89845	-0.0111735	-0.00558791
2	0.115847	-0.0910921	-0.151409	0.879278	1.04256	-0.310974	-0.020004	0.169102	0.10615	-0.623529	0.350081	0.049271	8.54464e-05	0.387479	-0.18082	-0.140358	-1.29944	0.12467	0.0758117	8.74104e-05	-0.462952	0.0250755	0.176258	0.0184792	-0.443247	0.0264345	1.9987	1.83032	-0.0106657	-0.019569	-0.447177	-0.262811	0.0845528	1.91864	1.8746	-0.0111735	-0.00558791
2.00833	0.10545	-0.0775195	-0.151059	0.879417	1.04645	-0.311257	-0.0390191	0.152027	0.106989	-0.591736	0.329864	0.049271	8.54464e-05	0.406778	-0.166821	-0.146881	-1.24873	0.12023	0.0758117	8.74104e-05	-0.44811	0.0111094	0.179737	0.0193788	-0.437708	0.0209582	2.03738	1.82511	-0.0106657	-0.019569	-0.46918	-0.267342	0.0808095	1.93975	1.85563	-0.0111735	-0.00558791
2.01667	0.0963255	-0.0639231	-0.148796	0.879745	1.05062	-0.311781	-0.0592673	0.134384	0.10425	-0.558844	0.304578	0.049271	8.54464e-05	0.421871	-0.150837	-0.151575	-1.19265	0.115071	0.0758117	8.74104e-05	-0.434722	-0.00229971	0.181299	0.0181026	-0.43184	0.0156293	2.07581	1.81982	-0.0106657	-0.019569	-0.49055	-0.27087	0.0762121	1.95918	1.84217	-0.0111735	-0.00558791
2.025	0.0887113	-0.0505988	-0.144867	0.880257	1.05504	-0.312521	-0.0808354	0.116541	0.0979438	-0.525379	0.274184	0.049271	8.54464e-05	0.432347	-0.13299	-0.153752	-1.13148	0.109644	0.0758117	8.74104e-05	-0.42315	-0.0150038	0.181056	0.0150273	-0.425686	0.0107466	2.11371	1.81507	-0.0106657	-0.019569	-0.511311	-0.273281	0.0707149	1.97693	1.83388	-0.0111735	-0.00558791
2.03333	0.0827134	-0.0378336	-0.139614	0.880948	1.05963	-0.313443	-0.103653	0.0988955	0.0883008	-0.491923	0.238828	0.049271	8.54464e-05	0.437999	-0.113571	-0.152819	-1.06564	0.104427	0.0758117	8.74104e-05	-0.413568	-0.0268749	0.179216	0.0104792	-0.419277	0.00659449	2.15082	1.8114	-0.0106657	-0.019569	-0.531521	-0.274515	0.0643206	1.9931	1.82974	-0.0111735	-0.00558791
2.04167	0.0782786	-0.025898	-0.133445	0.881808	1.06433	-0.314499	-0.127432	0.0818647	0.0757574	-0.459151	0.198855	0.049271	8.54464e-05	0.438884	-0.0930586	-0.148377	-0.995734	0.0998783	0.0758117	8.74104e-05	-0.405924	-0.0377873	0.176073	0.00471245	-0.412658	0.00343073	2.18693	1.80919	-0.0106657	-0.019569	-0.551222	-0.274562	0.0571028	2.00784	1.82847	-0.0111735	-0.00558791
2.05	0.075193	-0.0150403	-0.126781	0.882823	1.06903	-0.315643	-0.15164	0.0658633	0.0609121	-0.427868	0.154827	0.049271	8.54464e-05	0.435356	-0.0720992	-0.140311	-0.922624	0.0963975	0.0758117	8.74104e-05	-0.399965	-0.0476018	0.171986	-0.00209847	-0.405898	0.00146623	2.22181	1.8086	-0.0106657	-0.019569	-0.570407	-0.273463	0.0492187	2.02132	1.82879	-0.0111735	-0.00558791
2.05833	0.0731118	-0.00548556	-0.120018	0.883969	1.07362	-0.316828	-0.17552	0.0512821	0.0444615	-0.399015	0.107517	0.049271	8.54464e-05	0.428053	-0.0514719	-0.128856	-0.847419	0.09428	0.0758117	8.74104e-05	-0.395278	-0.0561569	0.167337	-0.00985075	-0.399099	0.000844448	2.25529	1.80958	-0.0106657	-0.019569	-0.588991	-0.271309	0.0409073	2.03366	1.82963	-0.0111735	-0.00558791
2.06667	0.0716183	0.00256155	-0.113486	0.885214	1.07798	-0.318017	-0.198165	0.038467	0.0271352	-0.373657	0.0579031	0.049271	8.54464e-05	0.417838	-0.0320251	-0.114643	-0.771487	0.093688	0.0758117	8.74104e-05	-0.391377	-0.0632712	0.162491	-0.0184988	-0.392394	0.00162384	2.28719	1.81186	-0.0106657	-0.019569	-0.606801	-0.268237	0.0324722	2.04498	1.83023	-0.0111735	-0.00558791
2.075	0.0703041	0.00891947	-0.107418	0.886518	1.08199	-0.319177	-0.218629	0.0276993	0.00963664	-0.352914	0.0071377	0.049271	8.54464e-05	0.405698	-0.0145964	-0.0986707	-0.696418	0.0946294	0.0758117	8.74104e-05	-0.38779	-0.0687569	0.157766	-0.0280387	-0.385935	0.00376844	2.31731	1.815	-0.0106657	-0.019569	-0.623581	-0.264429	0.0242549	2.05534	1.83016	-0.0111735	-0.00558791
2.08333	0.0688374	0.0134421	-0.101949	0.887842	1.08557	-0.320281	-0.236053	0.0191767	-0.00739894	-0.337873	-0.043489	0.049271	8.54464e-05	0.392639	7.49388e-05	-0.0822387	-0.623946	0.0969506	0.0758117	8.74104e-05	-0.384137	-0.0724472	0.153406	-0.0384989	-0.37987	0.00714884	2.34546	1.8185	-0.0106657	-0.019569	-0.639017	-0.260107	0.0166012	2.0648	1.82929	-0.0111735	-0.00558791
2.09167	0.0670371	0.0160457	-0.0971118	0.889154	1.08863	-0.321308	-0.249787	0.0129729	-0.0234571	-0.329497	-0.0925894	0.049271	8.54464e-05	0.379542	0.011454	-0.0668068	-0.555826	0.100341	0.0758117	8.74104e-05	-0.380196	-0.0742496	0.149563	-0.0499283	-0.374321	0.0115547	2.37145	1.82191	-0.0106657	-0.019569	-0.652774	-0.255527	0.00982496	2.07341	1.82768	-0.0111735	-0.00558791
2.1	0.064886	0.016742	-0.0928601	0.890423	1.09112	-0.322246	-0.259462	0.00901183	-0.0381806	-0.328555	-0.138727	0.049271	8.54464e-05	0.367067	0.0192856	-0.053822	-0.493678	0.104354	0.0758117	8.74104e-05	-0.375934	-0.0741847	0.146282	-0.0623846	-0.369364	0.0167191	2.39509	1.82491	-0.0106657	-0.019569	-0.664534	-0.25097	0.00417814	2.08124	1.82553	-0.0111735	-0.00558791
2.10833	0.0625068	0.0156781	-0.0890925	0.891624	1.09303	-0.323091	-0.264987	0.00705904	-0.0513895	-0.335581	-0.180482	0.049271	8.54464e-05	0.355609	0.0236182	-0.0445315	-0.438851	0.108432	0.0758117	8.74104e-05	-0.371471	-0.0723972	0.143509	-0.0759194	-0.365019	0.0223508	2.4162	1.82742	-0.0106657	-0.019569	-0.674027	-0.246727	-0.000167756	2.0884	1.8231	-0.0111735	-0.00558791
2.11667	0.0601136	0.0131204	-0.0856767	0.892743	1.09434	-0.323847	-0.266502	0.00672406	-0.063088	-0.350856	-0.216539	0.049271	8.54464e-05	0.345309	0.0247909	-0.0398168	-0.392308	0.111954	0.0758117	8.74104e-05	-0.367028	-0.0691559	0.141094	-0.0905593	-0.361255	0.0281659	2.43462	1.82957	-0.0106657	-0.019569	-0.68106	-0.243075	-0.00312877	2.09499	1.82062	-0.0111735	-0.00558791
2.125	0.0579476	0.00943275	-0.0824752	0.893774	1.09504	-0.32453	-0.264289	0.0074829	-0.0734542	-0.374414	-0.245796	0.049271	8.54464e-05	0.336117	0.0233797	-0.0400703	-0.354581	0.11428	0.0758117	8.74104e-05	-0.362855	-0.0648273	0.138808	-0.106284	-0.358007	0.0339143	2.45019	1.83167	-0.0106657	-0.019569	-0.685525	-0.240257	-0.00470591	2.10111	1.81832	-0.0111735	-0.00558791
2.13333	0.0562083	0.00504397	-0.0793684	0.894697	1.09508	-0.325161	-0.258703	0.00871695	-0.0828062	-0.406054	-0.267457	0.049271	8.54464e-05	0.32788	0.0201201	-0.045132	-0.325811	0.114827	0.0758117	8.74104e-05	-0.359175	-0.059838	0.136363	-0.12301	-0.355191	0.0393953	2.46279	1.83413	-0.0106657	-0.019569	-0.687396	-0.238461	-0.00497693	2.10686	1.81631	-0.0111735	-0.00558791
2.14167	0.0550463	0.000416453	-0.0762663	0.895523	1.09446	-0.32577	-0.250099	0.00976326	-0.0915455	-0.445361	-0.281119	0.049271	8.54464e-05	0.320448	0.0158221	-0.0542912	-0.305857	0.11316	0.0758117	8.74104e-05	-0.356148	-0.054634	0.133439	-0.140577	-0.352721	0.0444633	2.47231	1.83735	-0.0106657	-0.019569	-0.686724	-0.237812	-0.00408404	2.11231	1.81463	-0.0111735	-0.00558791
2.15	0.054532	-0.00398539	-0.0731149	0.896251	1.0932	-0.326389	-0.238809	0.00996776	-0.100076	-0.491733	-0.286811	0.049271	8.54464e-05	0.313753	0.0112989	-0.0663559	-0.294449	0.109118	0.0758117	8.74104e-05	-0.35387	-0.0496524	0.129716	-0.158754	-0.350518	0.0490243	2.47866	1.84162	-0.0106657	-0.019569	-0.683614	-0.238372	-0.00221851	2.11751	1.81326	-0.0111735	-0.00558791
2.15833	0.0546659	-0.00773202	-0.0698901	0.896867	1.09129	-0.327051	-0.225129	0.00873814	-0.108711	-0.544411	-0.284995	0.049271	8.54464e-05	0.307861	0.00731981	-0.079785	-0.291343	0.102965	0.0758117	8.74104e-05	-0.352394	-0.0453069	0.124886	-0.177243	-0.348512	0.0530323	2.48176	1.84708	-0.0106657	-0.019569	-0.678205	-0.240153	0.000394877	2.12248	1.81207	-0.0111735	-0.00558791
2.16667	0.0554144	-0.0104406	-0.066585	0.897345	1.08871	-0.327781	-0.209331	0.00559369	-0.11759	-0.602509	-0.276533	0.049271	8.54464e-05	0.302988	0.00457731	-0.0928788	-0.296413	0.0955151	0.0758117	8.74104e-05	-0.351764	-0.0419788	0.118671	-0.195687	-0.346632	0.056486	2.48155	1.85362	-0.0106657	-0.019569	-0.670639	-0.243129	0.00351497	2.12721	1.81089	-0.0111735	-0.00558791
2.175	0.0567478	-0.0117763	-0.0631933	0.897648	1.08545	-0.328592	-0.191676	0.000205325	-0.126629	-0.66505	-0.26261	0.049271	8.54464e-05	0.299442	0.00366523	-0.104014	-0.309644	0.0881741	0.0758117	8.74104e-05	-0.352053	-0.0400134	0.110815	-0.213699	-0.344803	0.0594251	2.47793	1.86094	-0.0106657	-0.019569	-0.661034	-0.247252	0.00690325	2.13163	1.80952	-0.0111735	-0.00558791
2.18333	0.0586768	-0.0114568	-0.0596961	0.897734	1.0815	-0.329485	-0.172446	-0.00757795	-0.135514	-0.730992	-0.244626	0.049271	8.54464e-05	0.297518	0.00505654	-0.111896	-0.331023	0.0828154	0.0758117	8.74104e-05	-0.353387	-0.0397158	0.101095	-0.230877	-0.342926	0.0619218	2.47079	1.86854	-0.0106657	-0.019569	-0.649457	-0.252472	0.0103466	2.13562	1.80775	-0.0111735	-0.00558791
2.19167	0.061289	-0.00925491	-0.0560616	0.897558	1.07702	-0.330446	-0.151962	-0.0177153	-0.143744	-0.799261	-0.224031	0.049271	8.54464e-05	0.297347	0.00907206	-0.11578	-0.36032	0.0814643	0.0758117	8.74104e-05	-0.355963	-0.0413392	0.0893362	-0.246853	-0.340878	0.0640615	2.45995	1.87588	-0.0106657	-0.019569	-0.635907	-0.258744	0.0136854	2.13893	1.80545	-0.0111735	-0.00558791
